<svg width="226" height="100" viewBox="0 0 226 100" fill="none" xmlns="http://www.w3.org/2000/svg">
<g clip-path="url(#clip0)">
<rect width="226" height="100" fill="transparent"/>
<path d="M62.8125 4H15.6875C14.1796 4.00162 12.734 4.56679 11.6677 5.57152C10.6015 6.57624 10.0017 7.93848 10 9.35938V90.5156C10.0017 91.9365 10.6015 93.2988 11.6677 94.3035C12.734 95.3082 14.1796 95.8734 15.6875 95.875H62.8125C64.3204 95.8734 65.766 95.3082 66.8323 94.3035C67.8985 93.2988 68.4983 91.9365 68.5 90.5156V9.35938C68.4983 7.93848 67.8985 6.57624 66.8323 5.57152C65.766 4.56679 64.3204 4.00162 62.8125 4V4ZM15.6875 7.0625H62.8125C63.4588 7.06316 64.0783 7.30536 64.5353 7.73597C64.9923 8.16657 65.2493 8.75041 65.25 9.35938V13.1875H13.25V9.35938C13.2507 8.75041 13.5077 8.16657 13.9647 7.73597C14.4217 7.30536 15.0412 7.06316 15.6875 7.0625V7.0625ZM65.25 83.625H13.25V16.25H65.25V83.625ZM62.8125 92.8125H15.6875C15.0412 92.8118 14.4217 92.5696 13.9647 92.139C13.5077 91.7084 13.2507 91.1246 13.25 90.5156V86.6875H65.25V90.5156C65.2493 91.1246 64.9923 91.7084 64.5353 92.139C64.0783 92.5696 63.4588 92.8118 62.8125 92.8125Z" fill="black"/>
<path d="M42.5 88.2188H36C35.569 88.2188 35.1557 88.3801 34.851 88.6672C34.5462 88.9544 34.375 89.3439 34.375 89.75C34.375 90.1561 34.5462 90.5456 34.851 90.8328C35.1557 91.1199 35.569 91.2812 36 91.2812H42.5C42.931 91.2812 43.3443 91.1199 43.649 90.8328C43.9538 90.5456 44.125 90.1561 44.125 89.75C44.125 89.3439 43.9538 88.9544 43.649 88.6672C43.3443 88.3801 42.931 88.2188 42.5 88.2188Z" fill="black"/>
<path d="M19.75 37.6875H24.625V53C24.625 53.4061 24.7962 53.7956 25.1009 54.0827C25.4057 54.3699 25.819 54.5312 26.25 54.5312H31.125V69.0781C31.1267 70.499 31.7265 71.8612 32.7927 72.866C33.859 73.8707 35.3046 74.4359 36.8125 74.4375H55.5C56.7925 74.4361 58.0316 73.9516 58.9455 73.0904C59.8594 72.2293 60.3735 71.0616 60.375 69.8437V51.4687C60.375 51.0626 60.2038 50.6731 59.899 50.386C59.5943 50.0988 59.181 49.9375 58.75 49.9375H57.125V44.5781C57.1238 43.5632 56.6953 42.5902 55.9338 41.8725C55.1722 41.1548 54.1396 40.7512 53.0625 40.75H50.625V37.6875H55.5C55.7328 37.6875 55.963 37.6404 56.1748 37.5493C56.3866 37.4582 56.5752 37.3253 56.7277 37.1595C56.8803 36.9938 56.9932 36.799 57.059 36.5886C57.1247 36.3781 57.1417 36.1568 57.1087 35.9396L56.0874 29.2021C55.8683 27.7224 55.2136 26.3302 54.1976 25.1834C53.1816 24.0365 51.8448 23.1808 50.339 22.7134L49.5131 22.4538C49.4737 22.4411 49.4337 22.4301 49.3932 22.4209L42.8932 20.8897C42.7645 20.8592 32.4839 20.8592 32.3551 20.8897L25.8551 22.4209C25.8145 22.4305 25.7746 22.4415 25.7353 22.4538L24.9094 22.7132C23.4036 23.1807 22.0669 24.0364 21.0509 25.1832C20.0348 26.3301 19.3801 27.7223 19.1609 29.2019L18.1396 35.9394C18.1066 36.1567 18.1236 36.3782 18.1894 36.5888C18.2552 36.7994 18.3684 36.9942 18.5211 37.16C18.6738 37.3258 18.8626 37.4587 19.0746 37.5497C19.2867 37.6407 19.517 37.6877 19.75 37.6875V37.6875ZM34.375 69.0781V53H50.625V71.375H36.8125C36.1662 71.3743 35.5467 71.1321 35.0897 70.7015C34.6327 70.2709 34.3757 69.6871 34.375 69.0781ZM47.375 49.9375H39.25V44.5781C39.25 44.3751 39.3356 44.1803 39.488 44.0367C39.6403 43.8932 39.847 43.8125 40.0625 43.8125H46.5625C46.778 43.8125 46.9846 43.8932 47.137 44.0367C47.2894 44.1803 47.375 44.3751 47.375 44.5781V49.9375ZM57.125 69.8437C57.1245 70.2497 56.9532 70.6389 56.6485 70.926C56.3439 71.2131 55.9308 71.3745 55.5 71.375H53.875V53H57.125V69.8437ZM53.875 44.5781V49.9375H50.625V44.5781C50.6252 44.321 50.598 44.0645 50.5437 43.8125H53.0625C53.278 43.8125 53.4846 43.8932 53.637 44.0367C53.7894 44.1803 53.875 44.3751 53.875 44.5781ZM40.875 23.9062V25.4375C40.875 26.2497 40.5326 27.0287 39.9231 27.603C39.3136 28.1773 38.487 28.5 37.625 28.5C36.763 28.5 35.9364 28.1773 35.3269 27.603C34.7174 27.0287 34.375 26.2497 34.375 25.4375V23.9062H40.875ZM22.3801 29.6358C22.5156 28.7197 22.9207 27.8578 23.5496 27.1477C24.1785 26.4376 25.006 25.9077 25.9382 25.6182L26.7048 25.3776L31.125 24.3361V25.4375C31.125 27.0619 31.8098 28.6199 33.0288 29.7685C34.2478 30.9172 35.9011 31.5625 37.625 31.5625C39.3489 31.5625 41.0022 30.9172 42.2212 29.7685C43.4402 28.6199 44.125 27.0619 44.125 25.4375V24.3361L48.5452 25.3776L49.3118 25.6184C50.244 25.9078 51.0715 26.4377 51.7004 27.1477C52.3293 27.8578 52.7345 28.7198 52.8699 29.6358L53.6264 34.625H49C48.569 34.625 48.1557 34.7863 47.8509 35.0735C47.5462 35.3606 47.375 35.7501 47.375 36.1562V40.8265C47.1076 40.7754 46.8354 40.7498 46.5625 40.75H40.0625C38.9854 40.7512 37.9528 41.1548 37.1912 41.8725C36.4296 42.5902 36.0012 43.5632 36 44.5781V49.9375H32.75C32.319 49.9375 31.9057 50.0988 31.6009 50.386C31.2962 50.6731 31.125 51.0626 31.125 51.4687H27.875V36.1562C27.875 35.7501 27.7038 35.3606 27.399 35.0735C27.0943 34.7863 26.681 34.625 26.25 34.625H21.6236L22.3801 29.6358Z" fill="black"/>
<path d="M39.25 80.9453C40.3718 80.9453 41.2812 80.0884 41.2812 79.0312C41.2812 77.9741 40.3718 77.1172 39.25 77.1172C38.1282 77.1172 37.2188 77.9741 37.2188 79.0312C37.2188 80.0884 38.1282 80.9453 39.25 80.9453Z" fill="black"/>
<path d="M33.1562 80.9453C34.2781 80.9453 35.1875 80.0884 35.1875 79.0312C35.1875 77.9741 34.2781 77.1172 33.1562 77.1172C32.0344 77.1172 31.125 77.9741 31.125 79.0312C31.125 80.0884 32.0344 80.9453 33.1562 80.9453Z" fill="black"/>
<path d="M45.3438 80.9453C46.4656 80.9453 47.375 80.0884 47.375 79.0312C47.375 77.9741 46.4656 77.1172 45.3438 77.1172C44.2219 77.1172 43.3125 77.9741 43.3125 79.0312C43.3125 80.0884 44.2219 80.9453 45.3438 80.9453Z" fill="black"/>
<path d="M37.625 11.6562H40.875C41.306 11.6562 41.7193 11.4949 42.024 11.2078C42.3288 10.9206 42.5 10.5311 42.5 10.125C42.5 9.71889 42.3288 9.32941 42.024 9.04224C41.7193 8.75508 41.306 8.59375 40.875 8.59375H37.625C37.194 8.59375 36.7807 8.75508 36.476 9.04224C36.1712 9.32941 36 9.71889 36 10.125C36 10.5311 36.1712 10.9206 36.476 11.2078C36.7807 11.4949 37.194 11.6562 37.625 11.6562Z" fill="black"/>
<path d="M88.92 67H78.84V33.4H88.92C92.184 33.4 95.08 34.104 97.608 35.512C100.136 36.92 102.12 38.888 103.56 41.416C105 43.912 105.72 46.84 105.72 50.2C105.72 53.56 105 56.504 103.56 59.032C102.12 61.528 100.136 63.48 97.608 64.888C95.08 66.296 92.184 67 88.92 67ZM88.92 37.48H82.92V62.92H88.92C91.448 62.92 93.656 62.408 95.544 61.384C97.464 60.328 98.952 58.856 100.008 56.968C101.096 55.048 101.64 52.792 101.64 50.2C101.64 47.576 101.096 45.32 100.008 43.432C98.952 41.544 97.464 40.088 95.544 39.064C93.656 38.008 91.448 37.48 88.92 37.48ZM119.769 67.48C117.721 67.48 115.897 67 114.297 66.04C112.729 65.048 111.497 63.688 110.601 61.96C109.737 60.232 109.305 58.232 109.305 55.96C109.305 53.656 109.753 51.64 110.649 49.912C111.577 48.184 112.857 46.84 114.489 45.88C116.153 44.92 118.073 44.44 120.249 44.44C123.481 44.44 126.025 45.448 127.881 47.464C129.737 49.48 130.665 52.248 130.665 55.768C130.665 55.992 130.649 56.232 130.617 56.488C130.617 56.712 130.617 56.856 130.617 56.92H113.241C113.401 59.128 114.089 60.84 115.305 62.056C116.521 63.272 118.169 63.88 120.249 63.88C123.257 63.88 125.561 62.552 127.161 59.896L130.281 61.864C127.977 65.608 124.473 67.48 119.769 67.48ZM120.249 47.8C118.361 47.8 116.825 48.312 115.641 49.336C114.457 50.328 113.705 51.768 113.385 53.656H126.489C126.361 51.896 125.721 50.488 124.569 49.432C123.449 48.344 122.009 47.8 120.249 47.8ZM150.088 53.56C150.088 49.88 148.52 48.04 145.384 48.04C143.72 48.04 142.36 48.552 141.304 49.576C140.28 50.6 139.768 51.928 139.768 53.56V67H135.928V44.92H139.768V48.376C141.208 45.752 143.4 44.44 146.344 44.44C148.68 44.44 150.52 45.224 151.864 46.792C153.24 48.328 153.928 50.424 153.928 53.08V67H150.088V53.56ZM161.147 35.8C161.147 35.064 161.403 34.44 161.915 33.928C162.459 33.416 163.083 33.16 163.787 33.16C164.523 33.16 165.147 33.416 165.659 33.928C166.171 34.44 166.427 35.064 166.427 35.8C166.427 36.504 166.171 37.128 165.659 37.672C165.147 38.184 164.523 38.44 163.787 38.44C163.083 38.44 162.459 38.184 161.915 37.672C161.403 37.128 161.147 36.504 161.147 35.8ZM161.867 44.92H165.707V67H161.867V44.92ZM203.856 53.08V67H200.016V53.56C200.016 51.672 199.664 50.28 198.96 49.384C198.288 48.488 197.232 48.04 195.792 48.04C194.224 48.04 192.976 48.536 192.048 49.528C191.12 50.488 190.656 51.832 190.656 53.56V67H186.816V53.56C186.816 51.672 186.464 50.28 185.76 49.384C185.088 48.488 184.032 48.04 182.592 48.04C181.024 48.04 179.776 48.536 178.848 49.528C177.92 50.488 177.456 51.832 177.456 53.56V67H173.616V44.92H177.456V48.136C178.768 45.672 180.8 44.44 183.552 44.44C185.088 44.44 186.4 44.808 187.488 45.544C188.608 46.248 189.424 47.256 189.936 48.568C191.472 45.816 193.744 44.44 196.752 44.44C199.024 44.44 200.768 45.192 201.984 46.696C203.232 48.2 203.856 50.328 203.856 53.08Z" fill="black"/>
</g>
<defs>
<clipPath id="clip0">
<rect width="226" height="100" fill="white"/>
</clipPath>
</defs>
</svg>
